<?xml version="1.0" encoding="utf-8"?>
<!-- Generator: Adobe Illustrator 16.0.0, SVG Export Plug-In . SVG Version: 6.00 Build 0)  -->
<!DOCTYPE svg PUBLIC "-//W3C//DTD SVG 1.1//EN" "http://www.w3.org/Graphics/SVG/1.1/DTD/svg11.dtd">
<svg version="1.1" id="Capa_1" xmlns="http://www.w3.org/2000/svg" xmlns:xlink="http://www.w3.org/1999/xlink" x="0px" y="0px"
	 width="16px" height="16px" viewBox="0 0 45.851 44.535" enable-background="new 0 0 45.851 44.535" xml:space="preserve">
<g>
	<g>
		<path fill="#E5AE41" d="M16.563,24.571c0-0.556-0.475-1.012-1.06-1.012h-3.714c-0.59,0-1.065,0.456-1.065,1.012V28.1
			c0,0.556,0.475,1.006,1.065,1.006h3.714c0.585,0,1.06-0.451,1.06-1.006V24.571L16.563,24.571z"/>
		<path fill="#E5AE41" d="M25.846,24.571c0-0.556-0.475-1.012-1.06-1.012h-3.72c-0.585,0-1.06,0.456-1.06,1.012V28.1
			c0,0.556,0.475,1.006,1.06,1.006h3.72c0.585,0,1.06-0.451,1.06-1.006V24.571z"/>
		<path fill="#E5AE41" d="M35.127,24.571c0-0.556-0.475-1.012-1.06-1.012h-3.714c-0.591,0-1.065,0.456-1.065,1.012V28.1
			c0,0.556,0.475,1.006,1.065,1.006h3.714c0.585,0,1.06-0.451,1.06-1.006V24.571z"/>
		<path fill="#E5AE41" d="M16.563,33.389c0-0.561-0.475-1.012-1.06-1.012h-3.714c-0.59,0-1.065,0.451-1.065,1.012v3.523
			c0,0.561,0.475,1.012,1.065,1.012h3.714c0.585,0,1.06-0.451,1.06-1.012V33.389L16.563,33.389z"/>
		<path fill="#E5AE41" d="M25.846,33.389c0-0.561-0.475-1.012-1.06-1.012h-3.72c-0.585,0-1.06,0.451-1.06,1.012v3.523
			c0,0.561,0.475,1.012,1.06,1.012h3.72c0.585,0,1.06-0.451,1.06-1.012V33.389z"/>
		<path fill="#E5AE41" d="M35.127,33.389c0-0.561-0.475-1.012-1.06-1.012h-3.714c-0.591,0-1.065,0.451-1.065,1.012v3.523
			c0,0.561,0.475,1.012,1.065,1.012h3.714c0.585,0,1.06-0.451,1.06-1.012V33.389L35.127,33.389z"/>
		<path fill="#E5AE41" d="M41.771,4.959v5.389c0,2.433-2.08,4.394-4.647,4.394H34.2c-2.566,0-4.669-1.961-4.669-4.394v-5.41H16.326
			v5.41c0,2.433-2.108,4.394-4.669,4.394h-2.93c-2.566,0-4.642-1.961-4.642-4.394V4.959C1.843,5.022,0,6.784,0,8.949v31.57
			c0,2.207,1.882,4.016,4.206,4.016H41.65c2.313,0,4.2-1.813,4.2-4.016V8.949C45.851,6.784,44.013,5.022,41.771,4.959z
			 M40.409,38.553c0,0.954-0.812,1.73-1.816,1.73H7.181c-1.004,0-1.816-0.776-1.816-1.73V22.249c0-0.954,0.812-1.73,1.816-1.73
			h31.412c1.004,0,1.816,0.776,1.816,1.73V38.553L40.409,38.553z"/>
		<path fill="#E5AE41" d="M8.715,11.854h2.897c0.877,0,1.589-0.671,1.589-1.51V1.51c0-0.833-0.712-1.51-1.589-1.51H8.715
			C7.837,0,7.125,0.676,7.125,1.51v8.833C7.125,11.182,7.837,11.854,8.715,11.854z"/>
		<path fill="#E5AE41" d="M34.161,11.854h2.898c0.877,0,1.589-0.671,1.589-1.51V1.51c0-0.833-0.712-1.51-1.589-1.51h-2.898
			c-0.877,0-1.589,0.676-1.589,1.51v8.833C32.572,11.182,33.283,11.854,34.161,11.854z"/>
	</g>
</g>
</svg>
