<?xml version="1.0" encoding="utf-8"?>
<!-- Generator: Adobe Illustrator 16.0.0, SVG Export Plug-In . SVG Version: 6.00 Build 0)  -->
<!DOCTYPE svg PUBLIC "-//W3C//DTD SVG 1.1//EN" "http://www.w3.org/Graphics/SVG/1.1/DTD/svg11.dtd">
<svg version="1.1" id="Capa_1" xmlns="http://www.w3.org/2000/svg" xmlns:xlink="http://www.w3.org/1999/xlink" x="0px" y="0px"
	 width="50px" height="50px" viewBox="0 0 300 250" enable-background="new 0 0 300 250" xml:space="preserve">
<g>
	<g>
		<g>
			<path fill="rgb(245,177,51)" d="M278.309,2.606H22.57c-11.802,0-21.407,8.786-21.407,19.582v141.758c0,10.813,9.604,19.599,21.407,19.599
				h90.628v30.409h-39.5c-6.064,0-10.994,4.502-10.994,10.065v14.517c0,5.564,4.929,10.064,10.994,10.064h153.482
				c6.064,0,10.984-4.5,10.984-10.064v-14.517c0-5.563-4.92-10.065-10.984-10.065h-39.508v-30.409h90.636
				c11.802,0,21.407-8.786,21.407-19.599V22.188C299.716,11.392,290.11,2.606,278.309,2.606z M22.008,163.945l0.563-142.29
				l256.301,0.532v142.29L22.008,163.945z M289.293,152.519c-2.978,0-5.374-2.208-5.374-4.933c0-2.707,2.396-4.916,5.374-4.916
				c2.979,0,5.394,2.209,5.394,4.916C294.687,150.311,292.271,152.519,289.293,152.519z M289.293,131.975
				c-2.978,0-5.374-2.21-5.374-4.921c0-2.723,2.396-4.933,5.374-4.933c2.979,0,5.394,2.21,5.394,4.933
				C294.687,129.765,292.271,131.975,289.293,131.975z"/>
			<path fill="#E5AE41" d="M141.333,107.174c1.089,0.298,2.286,0.017,3.095-0.715l8.36-7.639l19.559,17.886
				c1.218,1.097,3.16,1.097,4.377,0l7.734-7.058c0.563-0.515,0.908-1.246,0.908-1.994c0-0.747-0.346-1.478-0.908-2.009
				l-19.573-17.888l8.37-7.656c0.781-0.731,1.108-1.811,0.781-2.824c-0.363-0.979-1.252-1.728-2.343-1.943l-36.136-6.66
				c-1.017-0.199-2.07,0.101-2.795,0.764c-0.727,0.682-1.062,1.628-0.835,2.559l7.299,33.034
				C139.461,106.044,140.261,106.875,141.333,107.174z"/>
		</g>
	</g>
</g>
</svg>
